<svg xmlns="http://www.w3.org/2000/svg" xml:space="preserve" width="469.22748" height="585.07837" viewBox="0 0 469.22748 585.07839"><g style="stroke-width:.850111"><path d="M424.514-601.463c-5.327 5.276-10.807 8.379-12.239 6.935-1.43-1.444 1.732-6.887 7.064-12.162 5.333-5.283 10.815-8.383 12.236-6.94 1.429 1.445-1.728 6.887-7.061 12.167m-19.996 44.783c-25.77 15.994-37.619 11.552-37.619 11.552s.069-.17.203-.486c1.175-2.787 7.503-16.797 17.867-22.322 6.136-3.273 11.75-5.484 16.997-7.865l-.486-.244c1.432-2.992 2.773-6.033 3.92-9.174-1.82-1.533-4.169-4.655-6.273-8.542-3.287-6.064-4.712-11.646-3.192-12.464 1.522-.823 5.413 3.418 8.699 9.482a43 43 0 0 1 2.642 5.835 104 104 0 0 0 3.254-14.377c-2.146-1.52-4.853-4.38-7.39-8.014-4.3-6.155-6.422-12.083-4.758-13.24 1.665-1.162 6.493 2.875 10.79 9.026a48 48 0 0 1 2.277 3.613c.163-2.392.276-4.8.276-7.233 0-2.913-.15-5.787-.384-8.64-2.424-.562-6.426-3.172-10.39-6.966-5.424-5.193-8.675-10.587-7.27-12.048 1.405-1.468 6.934 1.54 12.353 6.73a44 44 0 0 1 4.483 4.974 104 104 0 0 0-3.163-13.999c-2.391.215-7.122-1.367-12.125-4.228-6.519-3.72-10.979-8.174-9.97-9.93 1.008-1.763 7.102-.18 13.616 3.544 2.541 1.45 4.75 3.01 6.463 4.481-2.03-5.536-4.54-10.833-7.433-15.884-2.204.782-7.268.191-12.898-1.687-7.123-2.367-12.371-5.855-11.728-7.775.64-1.926 6.929-1.575 14.048.799 2.742.91 5.194 1.989 7.152 3.079a105 105 0 0 0-11.288-14.25c-1.933 1.209-7.134 1.487-13.154.518-7.412-1.18-13.154-3.773-12.83-5.772.321-2.003 6.583-2.676 13.988-1.486 2.558.406 4.893.99 6.871 1.652a105 105 0 0 0-14.273-11.069c-2.287 1.285-5.86 2.52-10.027 3.322-7.371 1.43-13.654.962-14.034-1.03-.382-1.993 5.269-4.77 12.634-6.186a47 47 0 0 1 3.867-.573 104 104 0 0 0-12.426-5.616c-2.397.77-7.076.694-12.348-.375-6.54-1.312-11.69-3.682-12.48-5.588-.1-.24-.155-.476-.11-.698.207-1.006 1.936-1.607 4.54-1.767 2.528-.152 5.878.115 9.501.847 5.563 1.118 10.128 3.006 11.856 4.717 1.903.712 3.775 1.486 5.629 2.302-1.362-1.913-2.775-4.402-4.026-7.272-3.017-6.876-3.941-13.107-2.083-13.915 1.86-.806 5.81 4.092 8.812 10.968 2.437 5.56 3.475 10.65 2.812 12.836a108 108 0 0 1 6.148 3.377c2.505.191 4.149.802 4.34 1.788.05.264-.015.541-.165.826a108 108 0 0 1 6.227 4.418c-.85-2.329-1.564-5.438-1.943-8.927-.823-7.463.158-13.686 2.17-13.902 2.017-.218 4.324 5.641 5.136 13.097.666 6.057.134 11.242-1.165 13.113a108.3 108.3 0 0 1 15.468 16.117c-.64-2.552-.877-6.387-.516-10.691.621-7.48 2.775-13.402 4.793-13.228 2.023.17 3.164 6.362 2.533 13.838-.592 7.116-2.57 12.763-4.505 13.145a107.4 107.4 0 0 1 10.458 17.834c.18-2.62 1.119-6.307 2.757-10.256 2.875-6.935 6.729-11.92 8.598-11.139 1.876.777 1.072 7.022-1.802 13.95-2.552 6.161-5.873 10.76-7.899 11.16 2.216 5.3 3.998 10.819 5.35 16.504.99-2.17 2.49-4.7 4.425-7.282 4.502-6.008 9.47-9.882 11.087-8.664 1.626 1.219-.698 7.07-5.198 13.072-3.292 4.394-6.825 7.63-9.125 8.577 1.13 6.251 1.753 12.68 1.753 19.258 0 .905-.045 1.801-.067 2.7.516-2.534 2.524-6.47 5.55-10.507 4.501-6.008 9.468-9.882 11.085-8.664 1.627 1.219-.697 7.07-5.197 13.072-4.495 6.002-9.462 9.88-11.087 8.66-.19-.142-.317-.36-.402-.625-.118 2.798-.356 5.561-.684 8.3.59 1.958.625 3.411-.106 3.922-.117.083-.286.083-.436.114a107 107 0 0 1-7.231 25.18c1.23-1.836 3.448-4.172 6.27-6.446 4.155-3.349 8.19-5.425 9.98-5.282 7.287-8.727 10.442-17.508 10.442-17.508s-2.666 35.543-28.434 51.537m-50.058 53.315c-37.913 15.107-50.056 11.257-50.056 11.257s4.738-29.324 31.395-38.803c26.658-9.48 42.058-5.037 55.981-10.663 13.922-5.627 26.066-19.254 26.066-19.254s-25.474 42.357-63.386 57.463m-105.742 0c-37.912-15.106-63.386-57.463-63.386-57.463s12.143 13.627 26.065 19.254c13.923 5.626 29.324 1.184 55.981 10.663s31.395 38.803 31.395 38.803-12.143 3.85-50.055-11.257m-77.116-110.264c1.421-1.444 6.904 1.656 12.237 6.94 5.331 5.274 8.494 10.717 7.063 12.161s-6.912-1.659-12.238-6.935c-5.333-5.28-8.49-10.722-7.062-12.166m9.065 22.92c1.79-.143 5.826 1.933 9.98 5.282 2.822 2.274 5.04 4.61 6.271 6.446a107 107 0 0 1-7.232-25.18c-.15-.03-.318-.03-.436-.114-.73-.51-.696-1.964-.105-3.922a108 108 0 0 1-.684-8.3c-.085.264-.212.483-.403.625-1.624 1.22-6.591-2.658-11.086-8.66-4.5-6.001-6.825-11.853-5.198-13.072 1.617-1.218 6.584 2.656 11.086 8.664 3.025 4.037 5.033 7.973 5.55 10.507-.022-.899-.067-1.795-.067-2.7 0-6.578.623-13.007 1.753-19.258-2.3-.947-5.833-4.183-9.126-8.577-4.5-6.001-6.824-11.853-5.198-13.072 1.618-1.218 6.585 2.656 11.087 8.664 1.935 2.583 3.436 5.113 4.425 7.282a107 107 0 0 1 5.35-16.505c-2.026-.399-5.346-4.998-7.9-11.159-2.873-6.928-3.677-13.173-1.8-13.95 1.869-.78 5.723 4.204 8.597 11.139 1.638 3.95 2.577 7.636 2.758 10.257a107.4 107.4 0 0 1 10.458-17.835c-1.935-.382-3.914-6.029-4.505-13.144-.632-7.477.51-13.67 2.532-13.84 2.018-.173 4.172 5.749 4.793 13.229.361 4.304.125 8.14-.515 10.69a108.3 108.3 0 0 1 15.467-16.116c-1.298-1.87-1.831-7.056-1.165-13.113.812-7.456 3.12-13.315 5.136-13.097 2.013.216 2.993 6.44 2.171 13.902-.38 3.489-1.094 6.598-1.944 8.928a108 108 0 0 1 6.227-4.419c-.15-.285-.215-.562-.165-.826.191-.986 1.836-1.597 4.34-1.788a108 108 0 0 1 6.148-3.377c-.663-2.187.375-7.276 2.813-12.836 3.001-6.876 6.951-11.774 8.812-10.968 1.858.808.933 7.039-2.083 13.915-1.251 2.87-2.664 5.36-4.026 7.272a107 107 0 0 1 5.63-2.302c1.726-1.71 6.293-3.6 11.855-4.717 3.622-.732 6.973-1 9.502-.847 2.603.16 4.332.76 4.538 1.767.046.222-.01.459-.11.698-.79 1.906-5.94 4.276-12.48 5.588-5.272 1.069-9.95 1.146-12.347.375a104 104 0 0 0-12.427 5.616c1.241.136 2.525.312 3.867.573 7.365 1.416 13.016 4.193 12.634 6.185-.38 1.993-6.662 2.461-14.033 1.03-4.169-.8-7.74-2.036-10.028-3.32a105 105 0 0 0-14.273 11.068c1.979-.663 4.313-1.246 6.871-1.652 7.406-1.19 13.667-.517 13.989 1.486.324 1.999-5.419 4.592-12.831 5.772-6.019.969-11.22.69-13.154-.517a105 105 0 0 0-11.287 14.249c1.957-1.09 4.41-2.17 7.152-3.08 7.119-2.373 13.406-2.724 14.047-.798.644 1.92-4.605 5.408-11.727 7.775-5.63 1.878-10.694 2.469-12.899 1.687-2.893 5.05-5.402 10.348-7.433 15.884 1.713-1.472 3.923-3.03 6.464-4.481 6.513-3.724 12.608-5.307 13.614-3.544 1.01 1.756-3.45 6.21-9.968 9.93-5.004 2.86-9.735 4.443-12.126 4.228a104 104 0 0 0-3.162 13.999 44 44 0 0 1 4.483-4.974c5.418-5.19 10.947-8.198 12.353-6.73 1.404 1.46-1.847 6.855-7.27 12.048-3.964 3.794-7.966 6.404-10.39 6.966-.235 2.853-.384 5.727-.384 8.64 0 2.433.112 4.842.276 7.233a48 48 0 0 1 2.277-3.613c4.297-6.151 9.125-10.188 10.79-9.025 1.664 1.156-.459 7.084-4.76 13.239-2.535 3.634-5.243 6.494-7.389 8.014.746 4.915 1.85 9.712 3.254 14.377a43 43 0 0 1 2.643-5.835c3.286-6.064 7.176-10.305 8.699-9.482 1.52.818.095 6.4-3.192 12.464-2.105 3.887-4.453 7.009-6.274 8.542 1.147 3.141 2.489 6.182 3.92 9.174l-.486.244c5.247 2.38 10.861 4.592 16.998 7.865 10.363 5.525 16.69 19.535 17.867 22.322.134.316.202.486.202.486s-11.849 4.442-37.618-11.552c-25.768-15.994-28.434-51.537-28.434-51.537s3.155 8.781 10.44 17.508m110.852-154.424h20.141v37.685c43.346 4.995 77.01 41.799 77.01 86.485 0 44.682-33.664 81.486-77.01 86.48v-17.986c-3.298.478-6.642.812-10.071.812-3.43 0-6.775-.334-10.07-.812v17.986c-43.346-4.994-77.01-41.798-77.01-86.48 0-44.686 33.664-81.49 77.01-86.485zm157.865-26.908s-34.36 8.834-75.235 2.354c-39.532-6.265-61.715-22.645-72.56-33.6-10.842 10.955-33.027 27.335-72.559 33.6-40.875 6.48-75.235-2.354-75.235-2.354s-1.053 86.558-1.777 164.285c-1.184 127.19 71.68 144.26 107.224 153.683 19.81 5.252 34.147 16.123 42.348 23.823 8.201-7.7 22.538-18.57 42.347-23.823 35.543-9.424 108.408-26.494 107.224-153.683-.724-77.727-1.777-164.285-1.777-164.285" style="fill:#01a9ec;fill-opacity:1;fill-rule:nonzero;stroke:none;stroke-width:.850111" transform="matrix(1.56842 0 0 1.56842 -238.406 1259.893)"/><path d="M311.66-590.62a31.9 31.9 0 0 1-10.071 1.642c-3.522 0-6.9-.59-10.07-1.642a31.97 31.97 0 0 1-13.51-8.785h-42.264c8.058 24.62 29.523 43.104 55.774 46.936 3.295.478 6.64.812 10.07.812 3.429 0 6.773-.334 10.071-.812 26.252-3.832 47.716-22.316 55.775-46.936H325.17a32 32 0 0 1-13.51 8.785m-20.141-60.694a31.9 31.9 0 0 1 10.07-1.642c3.522 0 6.901.59 10.071 1.642 6.19 2.055 11.524 5.95 15.387 11.034h41.067c-7.459-25.73-29.41-45.23-56.454-49.18-3.298-.48-6.642-.813-10.071-.813-3.43 0-6.775.333-10.07.812-27.042 3.947-48.995 23.45-56.455 49.181h41.066c3.866-5.085 9.199-8.98 15.389-11.034" style="fill:#fff;fill-opacity:1;fill-rule:nonzero;stroke:none;stroke-width:.850111" transform="matrix(1.56842 0 0 1.56842 -238.406 1259.893)"/><path d="M319.765-599.405a28.2 28.2 0 0 1-8.103 4.766 28 28 0 0 1-10.072 1.885c-3.552 0-6.938-.684-10.069-1.885a28.2 28.2 0 0 1-8.105-4.766c-6.133-5.176-10.038-12.908-10.038-21.562 0-7.48 2.933-14.262 7.685-19.313a28.2 28.2 0 0 1 10.458-7.015 28 28 0 0 1 10.069-1.885c3.553 0 6.941.684 10.072 1.885a28.2 28.2 0 0 1 10.456 7.015c4.752 5.05 7.685 11.833 7.685 19.313 0 8.654-3.905 16.386-10.038 21.562m7.284-40.875c-3.863-5.085-9.196-8.98-15.387-11.034a31.9 31.9 0 0 0-10.072-1.642c-3.52 0-6.9.59-10.069 1.642-6.19 2.055-11.524 5.95-15.389 11.034-4.08 5.37-6.53 12.048-6.53 19.313 0 8.32 3.201 15.873 8.408 21.562a32 32 0 0 0 13.511 8.785 31.9 31.9 0 0 0 10.069 1.642c3.523 0 6.902-.59 10.072-1.642 5.24-1.739 9.864-4.8 13.509-8.785 5.206-5.69 8.41-13.242 8.41-21.562 0-7.265-2.452-13.943-6.532-19.313" style="fill:#fff200;fill-opacity:1;fill-rule:nonzero;stroke:none;stroke-width:.850111" transform="matrix(1.56842 0 0 1.56842 -238.406 1259.893)"/><path d="M319.764-599.405c6.132-5.176 10.037-12.908 10.037-21.562 0-7.48-2.933-14.262-7.685-19.313a28.2 28.2 0 0 0-10.456-7.015 28 28 0 0 0-10.071-1.885c-3.553 0-6.939.684-10.07 1.885a28.2 28.2 0 0 0-10.458 7.015c-4.752 5.05-7.685 11.833-7.685 19.313 0 8.654 3.905 16.386 10.039 21.562a28.2 28.2 0 0 0 8.104 4.766 28 28 0 0 0 10.07 1.885c3.553 0 6.94-.684 10.071-1.885a28.2 28.2 0 0 0 8.104-4.766m-8.104-108.043v-37.685H291.52v37.685c-43.346 4.995-77.01 41.799-77.01 86.485 0 44.682 33.664 81.486 77.01 86.48v-17.986c-26.251-3.832-47.716-22.316-55.774-46.936h42.263c-5.206-5.69-8.408-13.242-8.408-21.562 0-7.265 2.45-13.943 6.53-19.313h-41.066c7.46-25.73 29.413-45.234 56.455-49.18 3.295-.48 6.64-.813 10.07-.813 3.429 0 6.773.333 10.071.812 27.043 3.95 48.995 23.45 56.454 49.181h-41.067c4.08 5.37 6.531 12.048 6.531 19.313 0 8.32-3.202 15.873-8.408 21.562h42.265c-8.059 24.62-29.523 43.104-55.775 46.936v17.986c43.346-4.994 77.01-41.798 77.01-86.48 0-44.686-33.664-81.49-77.01-86.485" style="fill:#2e3192;fill-opacity:1;fill-rule:nonzero;stroke:none;stroke-width:.850111" transform="matrix(1.56842 0 0 1.56842 -238.406 1259.893)"/><path d="M190.904-594.528c1.43-1.444-1.732-6.887-7.063-12.162-5.334-5.283-10.816-8.383-12.237-6.94-1.429 1.445 1.728 6.887 7.062 12.167 5.326 5.276 10.807 8.379 12.238 6.935M279.771-727.6c-2.528-.152-5.88.115-9.501.847-5.563 1.118-10.129 3.006-11.856 4.717a107 107 0 0 0-5.63 2.302c1.362-1.913 2.776-4.402 4.027-7.272 3.016-6.876 3.94-13.107 2.082-13.915-1.86-.806-5.81 4.092-8.811 10.968-2.438 5.56-3.476 10.65-2.813 12.836a108 108 0 0 0-6.147 3.377c-2.505.191-4.15.802-4.34 1.788-.052.264.015.541.164.826a108 108 0 0 0-6.227 4.419c.85-2.33 1.564-5.44 1.944-8.928.822-7.463-.158-13.686-2.171-13.902-2.017-.218-4.324 5.641-5.136 13.097-.667 6.057-.133 11.242 1.165 13.113a108.4 108.4 0 0 0-15.467 16.117c.64-2.552.876-6.387.515-10.691-.621-7.48-2.775-13.402-4.794-13.228-2.021.17-3.163 6.362-2.531 13.839.591 7.115 2.57 12.762 4.505 13.144a107.4 107.4 0 0 0-10.458 17.835c-.18-2.621-1.12-6.308-2.758-10.257-2.874-6.935-6.729-11.92-8.598-11.139-1.876.777-1.072 7.022 1.802 13.95 2.553 6.161 5.873 10.76 7.9 11.16a107 107 0 0 0-5.35 16.504c-.99-2.17-2.491-4.7-4.427-7.282-4.502-6.008-9.468-9.882-11.086-8.664-1.626 1.219.698 7.07 5.198 13.072 3.292 4.394 6.826 7.63 9.125 8.577-1.13 6.251-1.753 12.68-1.753 19.258 0 .905.046 1.801.068 2.7-.517-2.534-2.525-6.47-5.55-10.507-4.502-6.008-9.469-9.882-11.087-8.664-1.626 1.219.698 7.07 5.198 13.072 4.495 6.002 9.463 9.88 11.087 8.66.19-.142.317-.36.402-.625.119 2.798.356 5.561.685 8.3-.59 1.958-.625 3.411.105 3.922.118.083.287.083.436.114a107 107 0 0 0 7.231 25.18c-1.23-1.836-3.448-4.172-6.27-6.446-4.155-3.349-8.19-5.425-9.98-5.282a58 58 0 0 0 3.479 3.818c5.274 5.275 10.913 8.299 17.065 11.09l.486-.244c-1.431-2.992-2.773-6.033-3.92-9.174 1.82-1.533 4.168-4.655 6.274-8.542 3.287-6.064 4.712-11.646 3.191-12.464-1.522-.823-5.413 3.418-8.698 9.482-1.118 2.063-2 4.051-2.643 5.835a104 104 0 0 1-3.255-14.377c2.147-1.52 4.855-4.38 7.39-8.014 4.3-6.155 6.423-12.083 4.76-13.24-1.665-1.162-6.493 2.875-10.79 9.026a48 48 0 0 0-2.278 3.613c-.163-2.392-.275-4.8-.275-7.233 0-2.913.149-5.787.383-8.64 2.425-.562 6.427-3.172 10.39-6.966 5.424-5.193 8.675-10.587 7.27-12.048-1.405-1.468-6.934 1.54-12.353 6.73a44 44 0 0 0-4.482 4.974c.73-4.783 1.806-9.452 3.162-13.999 2.39.215 7.122-1.367 12.126-4.228 6.518-3.72 10.979-8.174 9.968-9.93-1.006-1.763-7.101-.18-13.615 3.544-2.54 1.45-4.75 3.01-6.463 4.481 2.03-5.536 4.54-10.833 7.433-15.884 2.205.782 7.269.191 12.899-1.687 7.122-2.367 12.37-5.855 11.727-7.775-.64-1.926-6.928-1.575-14.047.799-2.743.91-5.195 1.989-7.153 3.079a105 105 0 0 1 11.288-14.25c1.933 1.209 7.135 1.487 13.154.518 7.412-1.18 13.155-3.773 12.83-5.772-.32-2.003-6.582-2.676-13.988-1.486-2.558.406-4.892.99-6.87 1.652a105 105 0 0 1 14.272-11.069c2.287 1.285 5.86 2.52 10.028 3.322 7.37 1.43 13.653.962 14.033-1.03.382-1.993-5.269-4.77-12.634-6.186a47 47 0 0 0-3.867-.573 104 104 0 0 1 12.426-5.616c2.397.77 7.076.694 12.349-.375 6.539-1.312 11.688-3.682 12.48-5.588.098-.24.154-.476.11-.698-.207-1.006-1.936-1.607-4.54-1.767m126.49 148.62a107 107 0 0 0 7.232-25.18c.15-.03.318-.03.436-.114.73-.51.696-1.964.106-3.922.327-2.739.566-5.502.684-8.3.085.264.212.483.402.625 1.625 1.22 6.592-2.658 11.087-8.66 4.5-6.001 6.823-11.853 5.197-13.072-1.617-1.218-6.584 2.656-11.086 8.664-3.025 4.037-5.033 7.973-5.55 10.507.022-.899.068-1.795.068-2.7 0-6.578-.623-13.007-1.753-19.258 2.299-.947 5.833-4.183 9.125-8.577 4.5-6.001 6.824-11.853 5.198-13.072-1.618-1.218-6.585 2.656-11.087 8.664-1.934 2.583-3.436 5.113-4.425 7.282a107 107 0 0 0-5.351-16.505c2.027-.399 5.348-4.998 7.9-11.159 2.874-6.928 3.678-13.173 1.802-13.95-1.869-.78-5.723 4.204-8.598 11.139-1.638 3.95-2.578 7.636-2.757 10.257a107.4 107.4 0 0 0-10.46-17.835c1.936-.382 3.915-6.029 4.507-13.144.631-7.477-.511-13.67-2.533-13.84-2.018-.173-4.172 5.749-4.794 13.229-.36 4.304-.124 8.14.516 10.69a108.3 108.3 0 0 0-15.467-16.116c1.299-1.87 1.831-7.056 1.165-13.113-.812-7.456-3.119-13.315-5.136-13.097-2.013.216-2.994 6.44-2.17 13.902.38 3.489 1.092 6.598 1.943 8.928a108 108 0 0 0-6.227-4.419c.15-.285.215-.562.165-.826-.191-.986-1.836-1.597-4.34-1.788a108 108 0 0 0-6.148-3.377c.663-2.187-.375-7.276-2.813-12.836-3.001-6.876-6.95-11.774-8.812-10.968-1.858.808-.933 7.039 2.083 13.915 1.251 2.87 2.664 5.36 4.027 7.272a107 107 0 0 0-5.63-2.302c-1.727-1.71-6.293-3.6-11.856-4.717-3.622-.732-6.973-1-9.502-.847-2.602.16-4.33.76-4.538 1.767-.045.222.01.459.11.698.79 1.906 5.94 4.276 12.48 5.588 5.271 1.069 9.951 1.146 12.348.375a104 104 0 0 1 12.426 5.616 47 47 0 0 0-3.867.573c-7.365 1.416-13.016 4.193-12.634 6.185.38 1.993 6.663 2.461 14.034 1.03 4.168-.8 7.74-2.036 10.027-3.32a105 105 0 0 1 14.272 11.068c-1.977-.663-4.312-1.246-6.87-1.652-7.406-1.19-13.668-.517-13.988 1.486-.325 1.999 5.418 4.592 12.83 5.772 6.02.969 11.22.69 13.153-.517 4.158 4.408 7.94 9.17 11.289 14.249-1.958-1.09-4.41-2.17-7.153-3.08-7.119-2.373-13.406-2.724-14.047-.798-.643 1.92 4.605 5.408 11.727 7.775 5.63 1.878 10.694 2.469 12.898 1.687 2.894 5.05 5.404 10.348 7.434 15.884-1.713-1.472-3.922-3.03-6.463-4.481-6.514-3.724-12.608-5.307-13.615-3.544-1.01 1.756 3.45 6.21 9.969 9.93 5.003 2.86 9.734 4.443 12.125 4.228a104 104 0 0 1 3.163 13.999 44 44 0 0 0-4.483-4.974c-5.419-5.19-10.948-8.198-12.353-6.73-1.405 1.46 1.846 6.855 7.27 12.048 3.963 3.794 7.965 6.404 10.39 6.966.234 2.853.384 5.727.384 8.64 0 2.433-.114 4.842-.277 7.233a48 48 0 0 0-2.276-3.613c-4.298-6.151-9.126-10.188-10.79-9.025-1.664 1.156.458 7.084 4.759 13.239 2.535 3.634 5.243 6.494 7.39 8.014a104 104 0 0 1-3.255 14.377 43 43 0 0 0-2.643-5.835c-3.285-6.064-7.176-10.305-8.698-9.482-1.52.818-.096 6.4 3.191 12.464 2.105 3.887 4.454 7.009 6.274 8.542-1.147 3.141-2.489 6.182-3.92 9.174l.486.244c6.152-2.791 11.79-5.815 17.065-11.09a58 58 0 0 0 3.48-3.818c-1.791-.143-5.826 1.933-9.98 5.282-2.823 2.274-5.04 4.61-6.271 6.446m13.079-27.709c-5.331 5.275-8.493 10.718-7.064 12.162 1.432 1.444 6.913-1.659 12.24-6.935 5.333-5.28 8.49-10.722 7.061-12.166-1.42-1.444-6.903 1.656-12.237 6.94" style="fill:#fff200;fill-opacity:1;fill-rule:nonzero;stroke:none;stroke-width:.850111" transform="matrix(1.56842 0 0 1.56842 -238.406 1259.893)"/><path d="M198.662-556.68c25.77 15.994 37.617 11.552 37.617 11.552s-.067-.17-.2-.486c-1.178-2.787-7.505-16.797-17.868-22.322-6.137-3.273-11.751-5.484-16.998-7.865-6.152-2.791-11.79-5.815-17.065-11.09a58 58 0 0 1-3.48-3.818c-7.286-8.727-10.44-17.508-10.44-17.508s2.665 35.543 28.434 51.537m68.718 25.77c-26.658-9.48-42.059-5.038-55.981-10.664-13.922-5.627-26.065-19.254-26.065-19.254s25.473 42.357 63.386 57.463c37.912 15.107 50.055 11.257 50.055 11.257s-4.738-29.324-31.395-38.803m124.402-10.664c-13.923 5.626-29.323 1.184-55.981 10.663-26.657 9.479-31.396 38.803-31.396 38.803s12.144 3.85 50.056-11.257 63.387-57.463 63.387-57.463-12.144 13.627-26.066 19.254m12.737-15.106c25.77-15.994 28.434-51.537 28.434-51.537s-3.154 8.781-10.44 17.508a58 58 0 0 1-3.48 3.818c-5.274 5.275-10.913 8.299-17.065 11.09-5.247 2.38-10.862 4.592-16.998 7.865-10.363 5.525-16.69 19.535-17.867 22.322-.134.316-.202.486-.202.486s11.849 4.442 37.618-11.552" style="fill:#0e9a4b;fill-opacity:1;fill-rule:nonzero;stroke:none;stroke-width:.850111" transform="matrix(1.56842 0 0 1.56842 -238.406 1259.893)"/><path d="M215.056-750.44q-.001 3.042-1.496 4.588-1.448 1.505-4.244 1.503-2.23 0-3.604-.714a4.2 4.2 0 0 1-1.864-1.82q-.516-.983-.687-2.481-.074-.907-.073-2.746h3.637q.001 2.478.368 3.384.492 1.13 1.94 1.129 1.324 0 1.792-.882.343-.614.343-1.96v-13.611h3.888zM251.838-760.62h-9.906v4.054h9.071v3.36h-9.07v4.998h10.322v3.388h-14.183v-19.216h13.766zM279.08-749.142q1.32 1.323 3.309 1.323 1.96 0 3.285-1.323 1.74-1.713 1.74-5.29 0-3.598-1.74-5.338-1.325-1.323-3.285-1.323-1.987 0-3.31 1.323-1.717 1.74-1.716 5.338-.001 3.577 1.716 5.29M277-762.866q2.303-1.67 5.388-1.67 3.06 0 5.362 1.67 3.551 2.572 3.551 8.434 0 5.816-3.55 8.39-2.325 1.692-5.363 1.693-3.062 0-5.388-1.693-3.526-2.574-3.526-8.39 0-5.862 3.526-8.434M325.123-764.04h3.637v19.223h-3.875L317.28-758.5h-.072v13.683h-3.666v-19.223h4.146l7.409 13.413h.025zM361.86-750.44q-.001 3.042-1.496 4.588-1.449 1.505-4.244 1.503-2.23 0-3.604-.714a4.18 4.18 0 0 1-1.864-1.82q-.515-.983-.687-2.481-.073-.907-.073-2.746h3.637q0 2.478.368 3.384.492 1.13 1.94 1.129 1.324 0 1.792-.882.343-.614.344-1.96v-13.611h3.886zM400.094-751.62c0 2.454-.695 4.293-2.083 5.526q-1.959 1.744-5.585 1.745-1.64 0-3.062-.492-1.836-.589-2.938-1.871a5.8 5.8 0 0 1-1.126-2.062q-.368-1.128-.368-2.576v-12.7h4.026v12.405q0 1.912.978 2.895.878.931 2.42.93 1.954 0 2.859-.954.88-.885.88-2.7v-12.576h3.999zM182.652-524.684l-6.65 5.342-2.432-3.027 14.852-11.926 2.43 3.027-5.645 4.536 4.614 5.748 5.646-4.536 2.407 2.998-14.85 11.928-2.408-3 6.65-5.342zM205.84-495.114q.258 1.838 1.833 3.027 1.554 1.172 3.394.913 2.406-.319 4.542-3.153 2.151-2.854 1.81-5.275-.26-1.839-1.813-3.01-1.575-1.185-3.416-.93-2.4.354-4.55 3.208-2.138 2.836-1.8 5.22m6.55-12.117c1.88.034 3.636.67 5.266 1.898q2.426 1.829 3.256 4.526 1.278 4.16-2.224 8.807c-2.313 3.072-4.922 4.578-7.823 4.526q-2.857-.052-5.264-1.864-2.427-1.83-3.26-4.56-1.258-4.15 2.213-8.755 3.502-4.646 7.836-4.578M250.072-486.694l3.304 1.382-7.355 17.574-3.539-1.482-1.711-15.415-.068-.028-5.234 12.506-3.332-1.391 7.355-17.575 3.787 1.587 1.638 15.092.022.01zM274.204-467.946l4.781.715-1.213-7.797-.07-.014zm-3.426 6.79-4.037-.608 9.482-17.842 4.422.664 3.732 19.822-4.132-.617-.642-4.079-6.944-1.04zM323.238-460.438l-3.61.367-1.496-14.72-1.962 15.072-3.723.377-4.878-14.377-.073.008 1.496 14.72-3.61.368-1.924-18.952 5.661-.576 4.818 13.993h.024l1.786-14.667 5.565-.565zM352.651-474.35q1 2.841.112 4.78-.862 1.873-3.476 2.794-2.085.731-3.605.524a4.16 4.16 0 0 1-2.34-1.083q-.804-.749-1.458-2.09c-.245-.548-.57-1.399-.972-2.544l3.388-1.19q.814 2.31 1.458 3.04.832.89 2.19.413 1.241-.437 1.388-1.416.12-.688-.322-1.947l-4.482-12.719 3.638-1.284zM378.27-499.376l-8.31 5.227 2.151 3.415 7.609-4.79 1.765 2.805-7.608 4.79 2.64 4.193 8.658-5.45 1.782 2.833-11.878 7.48-10.139-16.106 11.528-7.258zM406.941-503.226l-2.804 2.704-13.216-13.72 2.805-2.702zM421.568-525.739l5.21-7.563 2.833 1.95-7.41 10.757-15.68-10.798 2.202-3.193z" style="fill:#fff;fill-opacity:1;fill-rule:nonzero;stroke:none;stroke-width:.850111" transform="matrix(1.56842 0 0 1.56842 -238.406 1259.893)"/><path d="M270.622-636.607q.25.179 0 .857-.143.396-.215.646a4.3 4.3 0 0 0-.072.791v31.896h-5.22v-34.406h3.277q1.834 0 2.23.216m-7.328.34c.191.142.216.479.073 1.003a4 4 0 0 0-.18.68 5 5 0 0 0-.071.86v30.7h-4.998v-17.384h-4.445v-4.499h4.445v-11.61h2.893q1.89 0 2.283.25m-7.882 2.364v4.498h-5.125v2.152c0 3.318.49 6.283 1.47 8.886q1.682 4.409 5.015 6.595a23 23 0 0 0-1.754 1.898 17 17 0 0 0-1.541 2.045c-1.505-1.027-2.75-2.416-3.73-4.158q-1.367-2.4-2.013-5.665-.72 2.832-2.59 5.557-1.9 2.795-4.408 4.55a53 53 0 0 0-1.718-1.864 32 32 0 0 0-1.9-1.752c2.507-1.53 4.515-3.846 6.02-6.956q2.15-4.405 2.15-9.174v-2.114h-5.59v-4.498zM363.396-636.788q.755.074 1.041.215c.19.073.289.205.289.392q-.036.148-.181.611c-.118.313-.201.549-.25.716q-.109.504-.108.971v15.193h-5.332v-18.133h2.378q1.44 0 2.163.035m-23.413 6.703a4.1 4.1 0 0 0-.933 2.651q0 1.471.933 2.618 1.075 1.289 2.794 1.287 1.684.001 2.76-1.287a3.94 3.94 0 0 0 .969-2.618 3.98 3.98 0 0 0-.969-2.651q-1.075-1.256-2.76-1.257-1.72 0-2.794 1.257m24.26 13.01v8.774H342.64v1.888h22.257v3.61h-27.478v-8.996h21.493v-1.667h-21.493v-3.61zm-14.727-15.985q2.257 2.366 2.257 5.626 0 3.189-2.257 5.554-2.547 2.654-6.739 2.652-4.262.002-6.81-2.652-2.256-2.366-2.256-5.554c0-2.172.752-4.05 2.257-5.626q2.546-2.651 6.81-2.652 4.227 0 6.738 2.652M296.438-612.699h8.457v3.603h-8.458zm-5.59 9.712h5.59v-2.138h8.457v1.426h5.588v-12.825h-19.635zm17.256-30.965h-14.737v-1.545h14.737zm0 11.326h-14.737v-1.618h14.737zm-14.737-7.5h14.69v2.057h-14.69zm28.547-5.37v-4.558h-18.27v-2.37q.806-.76.713-1.285c-.064-.44-.714-.666-1.953-.666h-4.569v4.32h-18.27v4.558h8.396v12.871h-6.672v22.163h5.588v-17.606h27.945v9.733c0 .789-.35 1.308-1.043 1.566-.446.19-1.38.298-2.802.333l-.19.045a73 73 0 0 1 1.33 3.464q.568 1.52.9 2.75c3.011-.38 5.024-.993 6.04-1.848.95-.79 1.426-2.169 1.426-4.127v-16.473h-6.973v-1.618h.06v-9.708h-.06v-1.545z" style="fill:#fff200;fill-opacity:1;fill-rule:nonzero;stroke:none;stroke-width:.850111" transform="matrix(1.56842 0 0 1.56842 -238.406 1259.893)"/></g></svg>