<svg xmlns="http://www.w3.org/2000/svg" width="1281" height="364" overflow="hidden"><defs><clipPath id="a"><path d="M-1 177h1281v364H-1z"/></clipPath></defs><g fill-rule="evenodd" clip-path="url(#a)" transform="translate(1 -177)"><path fill="#FFF" d="M362 358.525C362 458.72 280.933 540 181 540 81.067 539.951 0 458.72 0 358.525 0 258.23 81.067 177 181 177c99.982 0 181 81.23 181 181.525"/><path fill="#E4032E" d="M344.463 308.579C334.463 275.041 287.617 209 203.53 209 124.171 209 69 268.836 69 322.516c0 9.948.591 14.43 3.054 23.787a49.684 49.684 0 0 1-1.527-12.214c0-55.945 56.009-94.703 113.643-94.703 77.979 0 141.18 63.185 141.18 141.144 0 61.117-35.172 114.009-86.254 139.421V520C304.957 496.115 352 433.028 352 358.96c0-17.533-2.364-32.996-7.537-50.381"/><path fill="#003764" d="M266.635 346.026c-28.876-19.538-65.883-11.585-85.299 17.821-16.162 24.545-40.653 27.638-50.114 27.638-30.897 0-52.037-21.649-58.295-44.035a3.19 3.19 0 0 1-.197-.638 6.102 6.102 0 0 0-.197-.786c-2.464-9.327-3.056-13.794-3.056-23.711 0-53.559 55.141-113.156 134.576-113.156 81.357 0 127.924 61.659 139.947 95.974a15.533 15.533 0 0 1-.591-1.817C320.249 236.208 256.435 188 181.238 188 86.675 188 10 264.387 10 358.643 10 442.884 71.005 515 155.565 515c67.46 0 112.844-37.702 133.59-89.641 11.432-28.425 3.35-61.807-22.52-79.333"/><path fill="#FFF" d="M437 299.523h57.987v15.175h-40.842v80.307h42.518v15.027H437V299.523ZM541.594 291H558v138h-16.406v-66.512h-18.426v65.724h-16.061V291.148h16.061v56.609h18.426V291ZM579 315.846v-14.687h32.406V288h18.244v13.159h32.553v14.687H579ZM585.147 426v-41.942h17.162v26.91h93.873v14.983H585.147Zm67.32-76.886c0 4.14-.837 7.935-2.558 11.435-1.721 3.499-3.934 6.653-6.737 9.462-2.999 2.662-6.392 4.781-10.277 6.358-3.885 1.528-8.015 2.317-12.441 2.317s-8.556-.789-12.441-2.317c-3.836-1.528-7.229-3.647-10.13-6.358-2.901-2.809-5.163-5.914-6.884-9.462-1.722-3.5-2.557-7.344-2.557-11.435 0-4.14.835-7.984 2.557-11.631 1.721-3.598 3.983-6.752 6.884-9.463a33.47 33.47 0 0 1 10.13-6.407c3.836-1.577 8.015-2.415 12.441-2.415s8.556.788 12.441 2.415a36.13 36.13 0 0 1 10.277 6.407c2.803 2.661 5.016 5.816 6.737 9.463 1.721 3.598 2.558 7.491 2.558 11.631Zm-16.523-.197c0-4.238-1.475-7.886-4.475-10.892-3-3.056-6.589-4.584-10.818-4.584-4.229 0-7.819 1.528-10.819 4.584-2.999 3.056-4.475 6.703-4.475 10.892 0 4.239 1.476 7.787 4.475 10.744 3 2.958 6.59 4.387 10.819 4.387 4.229 0 7.818-1.479 10.818-4.387 3-2.907 4.475-6.505 4.475-10.744Zm57.288-20.552H713v15.032h-19.768v35.732H676.07V290.76h17.162v37.605ZM731 365.754v-70.77h70.929v70.721H731Zm4.036 60.197v-45.984h16.982v30.885H848V426H735.036Zm50.059-116.115h-37.064v41.213h37.064v-41.213Zm44.496 69.344V291h17.179v88.18h-17.179ZM984.871 381.105V429h-17.077v-32.977h-90.182v-14.967h45.947v-20.12H869v-14.919h126v14.919h-54.559v20.169h44.43Zm0-87.056v40.976h-17.077v-25.911h-88.616V294h105.693ZM1012.49 309.665v-14.637h79.11v14.637h-33.84l35.23 42.732-11.96 9.873-28.56-35.316-28.07 37.625-12.4-9.873 35.23-45.041h-34.74Zm109.7 89.591c0 4.617-.94 8.989-2.87 13.016-1.92 4.077-4.49 7.663-7.65 10.708-3.22 3.094-7.02 5.501-11.42 7.319-4.4 1.817-9.09 2.701-14.03 2.701-4.84 0-9.54-.884-13.99-2.701-4.44-1.818-8.25-4.225-11.46-7.319a35.858 35.858 0 0 1-7.66-10.708c-1.93-4.077-2.86-8.399-2.86-13.016 0-4.617.93-8.989 2.86-13.016 1.93-4.077 4.45-7.614 7.66-10.708 3.21-3.094 7.02-5.501 11.46-7.319 4.45-1.817 9.1-2.701 13.99-2.701 4.94 0 9.63.884 14.03 2.701 4.4 1.818 8.2 4.225 11.42 7.319a35.651 35.651 0 0 1 7.65 10.708c1.93 4.027 2.87 8.399 2.87 13.016Zm-16.9-.147c0-5.158-1.88-9.578-5.68-13.262-3.76-3.684-8.3-5.551-13.59-5.551-5.19 0-9.64 1.867-13.34 5.551-3.71 3.684-5.58 8.104-5.58 13.262 0 5.255 1.87 9.676 5.58 13.36 3.7 3.634 8.15 5.452 13.34 5.452 5.29 0 9.78-1.818 13.59-5.452 3.8-3.684 5.68-8.105 5.68-13.36Zm11.47-35.169v-29.765h-25.75V319.39h25.75V291H1134v72.94h-17.24ZM1153 378.136h127v15.21h-54.99V429h-17.21v-35.654H1153v-15.21Zm27.13-67.605h72.6V293h17.06v66.519h-106.53V293h16.87v17.531Zm72.6 14.864h-72.6v19.062h72.6v-19.062Z"/></g></svg>